<?xml version="1.0" encoding="utf-8"?>
<!-- Generator: Adobe Illustrator 26.3.1, SVG Export Plug-In . SVG Version: 6.00 Build 0)  -->
<svg version="1.1" id="Logo" xmlns="http://www.w3.org/2000/svg" xmlns:xlink="http://www.w3.org/1999/xlink" x="0px" y="0px"
	 viewBox="0 0 460 515" style="enable-background:new 0 0 460 515;" xml:space="preserve">
<style type="text/css">
	.st0{fill:#CCCCCC;}
	.st1{fill:#FFFFFF;}
	.st2{fill:#B3B3B3;}
	.st3{fill:#3E5AA2;}
	.st4{fill:#566FAE;}
	.st5{fill:#2B4999;}
	.st6{fill:#999999;}
</style>
<g>
	<path class="st0" d="M231.63,515c-7.82,0-15.43-2.04-22.1-5.89L25.09,403.05c-5.12-2.95-9.69-7.03-13.25-11.81
		c-2.33-2.12-4.33-4.59-5.93-7.34C2.04,377.24,0,369.64,0,361.94V149.88c0.02-8.2,2.31-16.19,6.63-23.11
		c3.79-6.1,9.09-11.24,15.33-14.84L206.4,5.87C213.06,2.03,220.65,0,228.37,0c7.82,0,15.43,2.03,22.1,5.88l184.45,106.07
		c5.12,2.96,9.69,7.04,13.24,11.8c2.33,2.12,4.33,4.59,5.93,7.34l0,0c3.87,6.67,5.91,14.27,5.91,21.97v212.06
		c-0.02,8.2-2.31,16.19-6.64,23.12c-3.76,6.08-9.06,11.21-15.32,14.83l-0.13,0.07L253.6,509.13C246.94,512.97,239.34,515,231.63,515
		z"/>
	<path class="st1" d="M228.47,4.98c-6.94,0-13.67,1.8-19.57,5.2L24.53,116.2c-5.6,3.23-10.3,7.78-13.66,13.2
		c-3.83,6.14-5.87,13.22-5.88,20.49v212.06c0,6.83,1.81,13.56,5.24,19.47c1.38,2.37,3.1,4.49,5.13,6.3l0.19,0.17l0.15,0.21
		c3.17,4.31,7.28,8,11.88,10.65L212.02,504.8c5.92,3.42,12.66,5.22,19.51,5.22c6.94,0,13.67-1.8,19.57-5.2l184.47-106.08
		c5.52-3.19,10.22-7.73,13.55-13.12c3.84-6.15,5.87-13.23,5.89-20.5V153.06c0-6.83-1.81-13.56-5.24-19.47
		c-1.38-2.38-3.11-4.5-5.13-6.31l-0.19-0.17l-0.15-0.21c-3.16-4.3-7.27-7.98-11.87-10.64L247.98,10.19
		C242.06,6.78,235.31,4.98,228.47,4.98z"/>
	<g>
		<g>
			<path class="st2" d="M139.82,204l87.01-50V22.35c-0.02,0-0.03,0-0.05,0c0,0,0,0-0.01,0c-3.5,0-6.95,0.92-9.98,2.67L32.4,131.06
				c0,0-0.01,0-0.01,0.01c-2.84,1.64-5.25,3.98-6.97,6.76L139.82,204z"/>
			<path class="st0" d="M396.15,116.62l-159.36-91.6c-3.03-1.74-6.47-2.67-9.96-2.67v131.67l58.98,33.89c1.05,0.6,2.21,0.9,3.38,0.9
				c1.17,0,2.34-0.3,3.38-0.9l103.58-59.59c2.1-1.21,3.39-3.44,3.39-5.85C399.54,120.06,398.25,117.83,396.15,116.62z"/>
		</g>
		<g>
			<path class="st3" d="M320.18,311l-87.01,50v131.64c0.02,0,0.03,0,0.05,0c0,0,0,0,0.01,0c3.5,0,6.95-0.92,9.98-2.67l184.4-106.04
				c0,0,0.01,0,0.01-0.01c2.84-1.64,5.25-3.98,6.97-6.76L320.18,311z"/>
			<path class="st4" d="M63.85,398.38l159.36,91.6c3.03,1.74,6.47,2.67,9.96,2.67V360.98l-58.98-33.89c-1.05-0.6-2.21-0.9-3.38-0.9
				c-1.17,0-2.34,0.3-3.38,0.9L63.84,386.68c-2.1,1.21-3.39,3.44-3.39,5.85C60.46,394.94,61.75,397.17,63.85,398.38z"/>
		</g>
		<path class="st5" d="M434.91,144.68c-0.9-1.55-2.38-2.68-4.12-3.14c-0.57-0.15-1.16-0.23-1.74-0.23c-1.19,0-2.36,0.31-3.4,0.91
			L230.56,255.27c-0.2,0.11-0.38,0.25-0.56,0.38v3.19l204.58,118.33c1.96-3.14,3-6.75,3.01-10.46V154.64
			C437.59,151.15,436.66,147.7,434.91,144.68z"/>
		<path class="st6" d="M230,255.36L25.42,137.03c-1.96,3.14-3,6.75-3.01,10.46v212.08c0,3.49,0.92,6.93,2.68,9.96
			c0.9,1.55,2.38,2.68,4.12,3.14c0.57,0.15,1.16,0.23,1.74,0.23c1.19,0,2.36-0.31,3.4-0.91l195.08-113.05
			c0.2-0.11,0.38-0.25,0.56-0.38V255.36z"/>
	</g>
</g>
</svg>
